HIERARCHY
ROOT SimulationBone
{
	OFFSET 0.000000 0.000000 0.000000
	CHANNELS 6 Xposition Yposition Zposition Zrotation Yrotation Xrotation 
	JOINT Hips
	{
		OFFSET 0.000000 0.000000 0.000000
		CHANNELS 6 Xposition Yposition Zposition Zrotation Yrotation Xrotation 
		JOINT RightUpLeg
		{
			OFFSET 0.103459 1.857831 10.548505
			CHANNELS 3 Zrotation Yrotation Xrotation
			JOINT RightLeg
			{
				OFFSET 43.500004 -0.000023 -0.000004
				CHANNELS 3 Zrotation Yrotation Xrotation
				JOINT RightFoot
				{
					OFFSET 42.372204 0.000019 -0.000006
					CHANNELS 3 Zrotation Yrotation Xrotation
					JOINT RightToe
					{
						OFFSET 17.300005 0.000001 -0.000002
						CHANNELS 3 Zrotation Yrotation Xrotation
						End Site
						{
							OFFSET 0.000000 0.000000 0.000000
						}
					}
				}
			}
		}
		JOINT LeftUpLeg
		{
			OFFSET 0.103461 1.857828 -10.548505
			CHANNELS 3 Zrotation Yrotation Xrotation
			JOINT LeftLeg
			{
				OFFSET 43.500046 -0.000019 0.000006
				CHANNELS 3 Zrotation Yrotation Xrotation
				JOINT LeftFoot
				{
					OFFSET 42.372261 -0.000015 0.000011
					CHANNELS 3 Zrotation Yrotation Xrotation
					JOINT LeftToe
					{
						OFFSET 17.299999 -0.000003 0.000002
						CHANNELS 3 Zrotation Yrotation Xrotation
						End Site
						{
							OFFSET 0.000000 0.000000 0.000000
						}
					}
				}
			}
		}
		JOINT Spine
		{
			OFFSET 6.901964 -2.603731 0.000000
			CHANNELS 3 Zrotation Yrotation Xrotation
			JOINT Spine1
			{
				OFFSET 12.588102 -0.000003 0.000000
				CHANNELS 3 Zrotation Yrotation Xrotation
				JOINT Spine2
				{
					OFFSET 12.343204 0.000002 0.000000
					CHANNELS 3 Zrotation Yrotation Xrotation
					JOINT Neck
					{
						OFFSET 25.832891 -0.000013 0.000001
						CHANNELS 3 Zrotation Yrotation Xrotation
						JOINT Head
						{
							OFFSET 11.766613 0.000015 -0.000000
							CHANNELS 3 Zrotation Yrotation Xrotation
							End Site
							{
								OFFSET 0.000000 0.000000 0.000000
							}
						}
					}
					JOINT RightShoulder
					{
						OFFSET 19.745911 -1.480375 6.000106
						CHANNELS 3 Zrotation Yrotation Xrotation
						JOINT RightArm
						{
							OFFSET 11.284125 -0.000012 -0.000024
							CHANNELS 3 Zrotation Yrotation Xrotation
							JOINT RightForeArm
							{
								OFFSET 33.000050 0.000007 0.000027
								CHANNELS 3 Zrotation Yrotation Xrotation
								JOINT RightHand
								{
									OFFSET 25.200005 0.000018 0.000002
									CHANNELS 3 Zrotation Yrotation Xrotation
									End Site
									{
										OFFSET 0.000000 0.000000 0.000000
									}
								}
							}
						}
					}
					JOINT LeftShoulder
					{
						OFFSET 19.746092 -1.480375 -6.000074
						CHANNELS 3 Zrotation Yrotation Xrotation
						JOINT LeftArm
						{
							OFFSET 11.284139 -0.000017 -0.000020
							CHANNELS 3 Zrotation Yrotation Xrotation
							JOINT LeftForeArm
							{
								OFFSET 33.000099 0.000021 0.000012
								CHANNELS 3 Zrotation Yrotation Xrotation
								JOINT LeftHand
								{
									OFFSET 25.199780 0.000137 0.000427
									CHANNELS 3 Zrotation Yrotation Xrotation
									End Site
									{
										OFFSET 0.000000 0.000000 0.000000
									}
								}
							}
						}
					}
				}
			}
		}
	}
}
MOTION
Frames: 6
Frame Time: 0.033333
321.447065 0.000000 102.818219 180.000000 69.395853 180.000000 2.718409 89.357300 -0.076729 96.432639 3.066001 -173.200045 -171.775187 -4.240103 174.380617 -47.551313 -2.221435 11.095252 73.768283 -9.124895 -3.729251 21.454560 0.003116 0.000018 166.357412 -7.742497 -168.131677 -19.349678 2.563599 2.813245 75.898367 -4.457815 -8.363948 21.454551 -0.003093 0.000000 6.950145 2.165591 -0.461884 3.874023 4.345281 -0.852442 3.554977 4.339906 -0.878721 5.210288 5.129378 12.864608 -7.822833 -11.691441 17.409297 154.326977 -78.003800 24.710851 24.680358 68.731190 34.895979 -73.544321 -11.207347 2.411720 18.278869 19.795128 31.515015 -167.899737 70.701925 13.782885 -0.563801 -55.105707 -34.627253 -26.728166 16.830057 -1.286922 15.527151 5.425088 3.887794 
320.602669 0.000000 100.461104 180.000000 68.826167 180.000000 3.076642 89.059464 0.637133 97.936200 4.721274 -169.223924 -177.419519 -8.986597 177.219093 -59.166466 -0.699017 12.835227 68.251622 -13.350050 -10.499123 21.454557 0.003108 0.000015 168.234704 -9.802798 -168.946259 -20.814334 3.182434 6.064056 78.837752 -6.451041 -8.358370 21.454553 -0.003095 -0.000002 7.052284 2.665150 -0.863461 4.057839 5.358623 -1.635647 3.738352 5.348515 -1.668059 4.992885 5.277239 10.706325 -6.342839 -11.543522 15.040975 150.185574 -78.418228 28.888596 24.746586 69.247265 32.872891 -77.959485 -8.782840 2.431162 15.584907 22.470465 23.064260 -167.655176 69.689014 14.035642 -3.584832 -54.055415 -31.966402 -25.752470 16.850662 -1.271873 15.740197 4.669048 2.772586 
319.772880 0.000000 98.116289 180.000000 68.375850 180.000000 3.327394 88.794281 1.167900 99.530446 6.031540 -165.833050 176.424811 -11.747691 -178.207791 -69.804014 0.871351 12.780244 65.830968 -16.400102 -17.200662 21.454557 0.003098 0.000018 170.464678 -11.817199 -167.770770 -21.490569 3.175466 7.667637 81.322978 -7.220245 -7.958816 21.454551 -0.003092 0.000000 7.240727 3.070003 -1.120669 4.417525 6.180154 -2.127307 4.097643 6.167057 -2.164721 4.416712 4.879218 8.347549 -5.059939 -10.591251 12.193401 149.644882 -78.316575 29.443713 23.214870 69.318996 28.936684 -82.150503 -6.435738 2.449467 10.872048 15.620474 16.838057 -168.419788 68.835541 13.243820 -6.671435 -53.102313 -29.144359 -25.422072 16.918404 -1.270797 16.649375 5.204205 2.045813 
318.959822 0.000000 95.788426 180.000000 68.050889 180.000000 3.348530 88.734543 1.526337 100.285928 6.297376 -164.762024 171.491884 -11.683303 -175.515644 -76.932990 1.503003 8.283451 70.096838 -11.748818 -15.824560 21.454562 0.003110 0.000015 172.391844 -12.740498 -167.122681 -21.870413 3.324036 7.985101 83.307995 -7.295403 -8.136964 21.454553 -0.003084 0.000001 7.361764 3.100047 -0.940630 4.669623 6.235199 -1.758841 4.349634 6.224330 -1.796602 4.608234 3.977037 5.899003 -4.495355 -8.747063 9.007025 151.505808 -77.771519 27.590718 20.653476 69.008605 25.522081 -84.012788 -5.245880 2.448138 4.718974 -0.744912 13.073774 -170.096886 68.378240 11.504640 -9.636895 -52.517919 -26.822638 -25.356765 16.770577 -1.260362 16.046196 7.313627 3.233396 
318.158572 0.000000 93.475518 180.000000 67.848898 180.000000 3.375470 89.057358 1.513352 100.273996 5.238322 -165.749240 167.766972 -9.228803 -175.379095 -79.656425 2.134678 0.671411 74.656672 -4.722068 -13.746586 21.454555 0.003104 0.000024 174.603500 -12.281396 -168.080847 -21.589477 3.421512 7.822562 84.682297 -7.093066 -8.304556 21.454551 -0.003085 0.000001 7.409183 2.654836 -0.493985 4.790181 5.327714 -0.879344 4.470615 5.322170 -0.911595 5.103258 3.406360 3.792606 -3.262084 -6.839862 6.192969 153.209694 -77.790069 25.858888 19.680828 69.887868 23.730316 -83.830491 -5.600762 2.464882 -0.719777 -19.078139 11.166561 -172.543897 68.490835 8.968894 -12.492302 -52.839160 -24.743762 -25.585569 16.797460 -1.265769 16.309510 9.303399 4.092763 
317.357972 0.000000 91.176634 180.000000 67.731703 180.000000 3.388797 89.593758 1.251329 100.065702 3.633821 -167.806399 165.160777 -5.953010 -175.549467 -78.109613 2.079260 -5.911913 78.456792 1.879988 -8.740544 21.454563 0.003111 0.000018 177.306602 -11.001212 -169.519244 -20.456639 3.614556 7.179237 85.457462 -6.638700 -8.554474 21.454551 -0.003094 0.000000 7.412792 2.016127 0.079348 4.819968 4.027261 0.242140 4.501013 4.028513 0.217774 6.159947 2.346543 2.046720 -1.536504 -4.428904 3.538113 154.420974 -77.446921 24.649015 19.755675 70.978889 21.871034 -82.104263 -6.772108 2.470900 -4.697364 -34.003229 14.700980 -173.064016 69.023153 8.434813 -15.391640 -53.850851 -22.935738 -26.995751 17.428790 -1.329620 15.875842 9.599693 4.052603 
